<svg width="18" height="21" viewBox="0 0 18 21" fill="none" xmlns="http://www.w3.org/2000/svg">
<path fill-rule="evenodd" clip-rule="evenodd" d="M0.87929 6.1304C0.87929 5.10222 1.53604 4.30608 2.52512 4.30608C3.5142 4.30608 5.54346 4.27852 5.54346 4.27852C5.54346 4.27852 5.51249 3.4221 5.51249 2.3329C5.51249 1.24394 6.31739 0.5 7.28239 0.5C8.24758 0.5 13.0288 0.549131 13.498 0.549131C13.9671 0.549131 14.3477 0.759742 14.8736 1.24382C15.3994 1.72814 16.1944 2.53763 16.5881 3.07696C16.9817 3.61629 17.1479 3.93117 17.1479 4.37616C17.1479 4.82128 17.1479 13.7926 17.1418 14.832C17.1358 15.8716 16.3447 16.64 15.4079 16.6552C14.4712 16.6704 12.4596 16.6704 12.4596 16.6704C12.4596 16.6704 12.5068 17.4392 12.5068 18.5266C12.5068 19.614 11.6865 20.4638 10.7544 20.4938C9.82237 20.5238 3.47402 20.4337 2.56934 20.4638C1.66466 20.4938 0.851562 19.6314 0.851562 18.5743C0.851562 17.5172 0.87929 7.15847 0.87929 6.1304V6.1304ZM2.57268 6.61387L2.45611 17.9902C2.45541 18.0544 2.46525 18.1182 2.48507 18.1778C2.50488 18.2374 2.53427 18.2916 2.57153 18.3373C2.60879 18.383 2.65318 18.4194 2.70212 18.4442C2.75106 18.469 2.80358 18.4817 2.85663 18.4818L10.3362 18.5087C10.389 18.5095 10.4413 18.4973 10.49 18.473C10.5388 18.4487 10.5829 18.4127 10.6199 18.3672C10.6569 18.3216 10.6858 18.2675 10.7051 18.2081C10.7243 18.1487 10.7335 18.0851 10.7319 18.0213L10.7099 16.9319C10.7094 16.8997 10.7037 16.8679 10.693 16.8383C10.6823 16.8088 10.6669 16.7821 10.6476 16.7599C10.6284 16.7376 10.6056 16.7202 10.5808 16.7087C10.5559 16.6971 10.5294 16.6917 10.5028 16.6926C10.5028 16.6926 8.29008 16.771 7.28815 16.7285C6.28612 16.6859 5.60104 15.8945 5.60073 14.8275C5.60043 13.7605 5.60104 6.35621 5.60104 6.35621C5.60109 6.32398 5.59586 6.29206 5.58566 6.26229C5.57545 6.23252 5.56047 6.2055 5.54158 6.18279C5.5227 6.16008 5.50027 6.14213 5.47562 6.12999C5.45096 6.11784 5.42456 6.11173 5.39794 6.11203L2.98232 6.12207C2.8745 6.12299 2.77127 6.17496 2.69471 6.26688C2.61815 6.35879 2.57435 6.48334 2.57268 6.61387V6.61387ZM13.3507 2.29406C13.1821 2.11641 13.0455 2.19114 13.0455 2.46216V4.57624C13.0455 4.71175 13.136 4.82214 13.2476 4.82287L15.3593 4.83525C15.5824 4.83659 15.6266 4.69361 15.4581 4.51596L13.3507 2.29406V2.29406ZM7.52131 2.39783C7.49467 2.39754 7.46824 2.40362 7.44355 2.41571C7.41885 2.42779 7.39636 2.44566 7.37737 2.46829C7.35839 2.49091 7.34327 2.51785 7.33289 2.54755C7.32252 2.57726 7.31708 2.60915 7.31689 2.6414L7.25355 14.439C7.25316 14.4871 7.26067 14.5349 7.27566 14.5795C7.29064 14.6241 7.31279 14.6647 7.34083 14.6988C7.36886 14.733 7.40222 14.7601 7.43897 14.7785C7.47572 14.7969 7.51513 14.8063 7.5549 14.8062L15.1647 14.7834C15.219 14.7831 15.2709 14.7571 15.3096 14.7111C15.3482 14.665 15.3705 14.6025 15.3716 14.5369L15.4999 6.88905C15.5006 6.85702 15.496 6.82515 15.4864 6.79532C15.4767 6.76549 15.4622 6.73832 15.4437 6.71541C15.4252 6.69251 15.4031 6.67434 15.3787 6.66199C15.3542 6.64964 15.328 6.64336 15.3016 6.64352C15.3016 6.64352 12.6531 6.64866 12.1865 6.64866C11.7199 6.64866 11.424 6.37642 11.424 5.85449C11.424 5.33255 11.4151 2.67326 11.4151 2.67326C11.4147 2.6079 11.3931 2.54534 11.3549 2.49909C11.3168 2.45284 11.2652 2.42659 11.2112 2.42601L7.52121 2.39783H7.52131Z" fill="black"/>
</svg>
