<svg width="21" height="21" viewBox="0 0 21 21" fill="none" xmlns="http://www.w3.org/2000/svg">
<path d="M8.14 6.14C8.37 5.64 8.5 5.09 8.5 4.5C8.5 2.29 6.71 0.5 4.5 0.5C2.29 0.5 0.5 2.29 0.5 4.5C0.5 6.71 2.29 8.5 4.5 8.5C5.09 8.5 5.64 8.37 6.14 8.14L8.5 10.5L6.14 12.86C5.64 12.63 5.09 12.5 4.5 12.5C2.29 12.5 0.5 14.29 0.5 16.5C0.5 18.71 2.29 20.5 4.5 20.5C6.71 20.5 8.5 18.71 8.5 16.5C8.5 15.91 8.37 15.36 8.14 14.86L10.5 12.5L17.5 19.5H20.5V18.5L8.14 6.14ZM4.5 6.5C3.4 6.5 2.5 5.61 2.5 4.5C2.5 3.39 3.4 2.5 4.5 2.5C5.6 2.5 6.5 3.39 6.5 4.5C6.5 5.61 5.6 6.5 4.5 6.5ZM4.5 18.5C3.4 18.5 2.5 17.61 2.5 16.5C2.5 15.39 3.4 14.5 4.5 14.5C5.6 14.5 6.5 15.39 6.5 16.5C6.5 17.61 5.6 18.5 4.5 18.5ZM10.5 11C10.22 11 10 10.78 10 10.5C10 10.22 10.22 10 10.5 10C10.78 10 11 10.22 11 10.5C11 10.78 10.78 11 10.5 11ZM17.5 1.5L11.5 7.5L13.5 9.5L20.5 2.5V1.5H17.5Z" fill="black"/>
</svg>
