<svg width="28" height="29" viewBox="0 0 28 29" fill="none" xmlns="http://www.w3.org/2000/svg">
<path d="M27.34 15.06C27.1469 14.9902 26.9369 14.9815 26.7387 15.0352C26.5404 15.0889 26.3635 15.2023 26.232 15.36L22.46 19.886L17.024 18.898L13.422 9.946C13.2059 9.37559 12.8217 8.88418 12.3204 8.53672C11.819 8.18927 11.224 8.00212 10.614 8H6.554C6.01006 8.00015 5.47639 8.14809 5.01 8.428L0 11.434V17.834L5 18.744V29H7V19.107L10.565 19.755L12 23.2V29H14V22.8L12.909 20.182L20.99 21.651L16.232 27.36C16.1104 27.506 16.0329 27.6836 16.0086 27.8721C15.9843 28.0605 16.0142 28.252 16.0948 28.4241C16.1753 28.5962 16.3033 28.7417 16.4636 28.8437C16.6239 28.9457 16.81 28.9999 17 29H27C27.2652 29 27.5196 28.8946 27.7071 28.7071C27.8946 28.5196 28 28.2652 28 28V16C27.9999 15.7945 27.9365 15.594 27.8184 15.4258C27.7003 15.2576 27.5333 15.1299 27.34 15.06ZM2 16.166V12.566L5 10.766V16.711L2 16.166ZM7 17.075V10H10.614C10.8211 10.0018 11.0227 10.067 11.1916 10.1868C11.3605 10.3066 11.4888 10.4752 11.559 10.67L14.699 18.475L7 17.075ZM26 27H19.135L26 18.762V27ZM10.5 7C9.80777 7 9.13108 6.79473 8.5555 6.41015C7.97993 6.02556 7.53133 5.47894 7.26642 4.83939C7.00151 4.19985 6.9322 3.49612 7.06725 2.81719C7.2023 2.13825 7.53564 1.51461 8.02513 1.02513C8.51461 0.535644 9.13825 0.202301 9.81718 0.0672531C10.4961 -0.0677952 11.1999 0.00151649 11.8394 0.266423C12.4789 0.53133 13.0256 0.979934 13.4101 1.55551C13.7947 2.13108 14 2.80777 14 3.5C13.9989 4.42793 13.6299 5.31756 12.9737 5.97371C12.3176 6.62985 11.4279 6.99894 10.5 7ZM10.5 2C10.2033 2 9.91332 2.08798 9.66665 2.2528C9.41997 2.41762 9.22771 2.65189 9.11418 2.92598C9.00065 3.20007 8.97094 3.50167 9.02882 3.79264C9.0867 4.08361 9.22956 4.35088 9.43934 4.56066C9.64912 4.77044 9.91639 4.9133 10.2074 4.97118C10.4983 5.02906 10.7999 4.99935 11.074 4.88582C11.3481 4.77229 11.5824 4.58003 11.7472 4.33336C11.912 4.08668 12 3.79667 12 3.5C11.9995 3.10234 11.8413 2.72112 11.5601 2.43993C11.2789 2.15874 10.8977 2.00053 10.5 2Z" fill="white"/>
</svg>
