<svg width="18" height="21" viewBox="0 0 18 21" fill="none" xmlns="http://www.w3.org/2000/svg">
<path d="M8.25897 0.5C7.32564 0.5 6.6649 1.15926 6.33749 1.98148H0.851562V19.0185H6.77749V20.5H17.1479V8.64815H15.6664V1.98148H10.1805C9.85304 1.15926 9.1923 0.5 8.25897 0.5ZM8.25897 1.98148C8.67008 1.98148 8.99971 2.31111 8.99971 2.72222V3.46296H11.2219V4.94444H5.29601V3.46296H7.51823V2.72222C7.51823 2.31111 7.84786 1.98148 8.25897 1.98148ZM2.33304 3.46296H3.81453V6.42593H12.7034V3.46296H14.1849V8.64815H6.77749V17.537H2.33304V3.46296ZM8.25897 10.1296H15.6664V19.0185H8.25897V10.1296Z" fill="black"/>
</svg>
